<?xml version="1.0" encoding="UTF-8" standalone="no"?>
<!-- Created with Inkscape (http://www.inkscape.org/) -->

<svg
   width="160mm"
   height="160mm"
   viewBox="0 0 160 160"
   version="1.1"
   id="svg156"
   xml:space="preserve"
   inkscape:version="1.2.1 (9c6d41e410, 2022-07-14)"
   sodipodi:docname="add-btn.svg"
   xmlns:inkscape="http://www.inkscape.org/namespaces/inkscape"
   xmlns:sodipodi="http://sodipodi.sourceforge.net/DTD/sodipodi-0.dtd"
   xmlns="http://www.w3.org/2000/svg"
   xmlns:svg="http://www.w3.org/2000/svg"><sodipodi:namedview
     id="namedview158"
     pagecolor="#ffffff"
     bordercolor="#000000"
     borderopacity="0.25"
     inkscape:showpageshadow="2"
     inkscape:pageopacity="0.0"
     inkscape:pagecheckerboard="0"
     inkscape:deskcolor="#d1d1d1"
     inkscape:document-units="mm"
     showgrid="true"
     inkscape:zoom="1.0885159"
     inkscape:cx="-3.2153871"
     inkscape:cy="285.25077"
     inkscape:window-width="1800"
     inkscape:window-height="1051"
     inkscape:window-x="111"
     inkscape:window-y="-9"
     inkscape:window-maximized="1"
     inkscape:current-layer="layer1"><inkscape:grid
       type="xygrid"
       id="grid3241"
       originx="-6.5794443e-06"
       originy="-1.9008838e-05" /></sodipodi:namedview><defs
     id="defs153" /><g
     inkscape:label="Layer 1"
     inkscape:groupmode="layer"
     id="layer1"
     transform="translate(-2.2759514,-131.52596)"><path
       id="path305"
       style="color:#000000;display:inline;fill:#005aa1;-inkscape-stroke:none;paint-order:stroke markers fill;fill-opacity:1"
       d="M 82.275203 131.52544 C 38.09262 131.52544 2.2754346 167.34264 2.2754346 211.52521 C 2.2754346 232.54074 10.383167 251.66025 23.635888 265.93636 C 24.992845 267.3981 26.403333 268.80861 27.865087 270.16556 A 79.99469 79.99469 0 0 0 27.866121 270.16659 C 42.14205 283.41843 61.260467 291.5255 82.275203 291.5255 C 103.28363 291.5255 122.39734 283.42325 136.67188 270.17848 A 79.99469 79.99469 0 0 0 136.70082 270.15161 C 138.15241 268.80342 139.55341 267.40241 140.9016 265.95083 A 79.99469 79.99469 0 0 0 140.92847 265.92189 C 154.17324 251.64734 162.27549 232.53363 162.27549 211.52521 C 162.27549 190.54545 154.19539 171.45571 140.98273 157.18744 C 140.52385 156.6919 140.05862 156.20258 139.58747 155.7188 A 79.99469 79.99469 0 0 0 139.53579 155.66557 C 139.32701 155.45159 139.11282 155.24309 138.90172 155.0315 C 138.85818 154.98787 138.81461 154.9443 138.77098 154.90076 C 138.55888 154.68914 138.34986 154.47443 138.13536 154.26514 A 79.99469 79.99469 0 0 0 138.08472 154.21553 C 123.67117 140.17712 103.98478 131.52544 82.275203 131.52544 z M 82.027156 131.54043 A 79.99469 79.99469 0 0 0 79.327579 131.59469 C 80.223843 131.56204 81.123469 131.54318 82.027156 131.54043 z M 79.176684 131.59986 A 79.99469 79.99469 0 0 0 76.463671 131.74869 C 77.363939 131.68403 78.268545 131.63463 79.176684 131.59986 z M 76.210457 131.76471 A 79.99469 79.99469 0 0 0 37.242293 145.41297 C 48.502391 137.72824 61.825016 132.84319 76.210457 131.76471 z M 90.591491 131.96573 C 104.67565 133.42057 117.67526 138.52899 128.62638 146.32816 A 79.99469 79.99469 0 0 0 90.591491 131.96573 z M 37.170979 145.46258 A 79.99469 79.99469 0 0 0 34.843989 147.11622 C 35.609445 146.55168 36.384989 146.00024 37.170979 145.46258 z M 34.805232 147.14464 A 79.99469 79.99469 0 0 0 32.537153 148.88252 C 33.28241 148.29 34.038714 147.71068 34.805232 147.14464 z M 32.233813 149.12695 A 79.99469 79.99469 0 0 0 30.163138 150.84778 C 30.843629 150.26303 31.533788 149.68907 32.233813 149.12695 z M 30.085623 150.91444 A 79.99469 79.99469 0 0 0 28.071793 152.70865 C 28.732732 152.09924 29.404309 151.50141 30.085623 150.91444 z M 70.275418 151.52526 L 94.275504 151.52577 L 94.275504 199.52543 L 142.27154 199.52543 L 142.27516 199.52543 L 142.27516 223.52551 L 94.275504 223.52551 L 94.275504 271.52568 L 70.275418 271.52568 L 70.275418 223.52551 L 22.275247 223.52551 L 22.275247 199.52543 L 70.275418 199.52543 L 70.275418 151.53146 L 70.275418 151.52526 z M 27.655798 153.0957 A 79.99469 79.99469 0 0 0 25.779943 154.90903 C 26.395526 154.29475 27.020469 153.68985 27.655798 153.0957 z M 25.65902 155.02995 A 79.99469 79.99469 0 0 0 23.845694 156.90581 C 24.43984 156.27048 25.044744 155.64554 25.65902 155.02995 z M 23.458638 157.3218 A 79.99469 79.99469 0 0 0 21.660298 159.34028 C 22.248565 158.65744 22.847837 157.98425 23.458638 157.3218 z M 21.601387 159.40901 A 79.99469 79.99469 0 0 0 19.873327 161.48796 C 20.437749 160.78496 21.014133 160.09223 21.601387 159.40901 z M 19.636132 161.78251 A 79.99469 79.99469 0 0 0 17.896187 164.05266 C 18.462898 163.28526 19.042916 162.52853 19.636132 161.78251 z M 146.32349 163.60049 C 155.04162 175.23244 160.66047 189.31894 161.9675 204.63571 A 79.99469 79.99469 0 0 0 146.32349 163.60049 z M 17.867765 164.09141 A 79.99469 79.99469 0 0 0 16.212568 166.42099 C 16.750708 165.63431 17.302666 164.85759 17.867765 164.09141 z M 16.162959 166.4923 A 79.99469 79.99469 0 0 0 2.5146965 205.46047 C 3.5931902 191.07502 8.4782292 177.7524 16.162959 166.4923 z M 2.4986768 205.71368 A 79.99469 79.99469 0 0 0 2.3498487 208.42669 C 2.38462 207.51855 2.4340259 206.61395 2.4986768 205.71368 z M 2.3446811 208.57759 A 79.99469 79.99469 0 0 0 2.2904208 211.27716 C 2.2931713 210.37348 2.3120352 209.47385 2.3446811 208.57759 z M 162.26309 211.73553 C 162.26071 212.65306 162.24198 213.56696 162.20882 214.47697 A 79.99469 79.99469 0 0 0 162.26309 211.73553 z M 2.2904208 211.77481 A 79.99469 79.99469 0 0 0 2.3446811 214.47335 C 2.3120288 213.57739 2.2931872 212.67806 2.2904208 211.77481 z M 162.20417 214.61701 C 162.16896 215.53977 162.11833 216.45841 162.05225 217.37292 A 79.99469 79.99469 0 0 0 162.20417 214.61701 z M 2.3498487 214.62425 A 79.99469 79.99469 0 0 0 2.4986768 217.33623 C 2.4340677 216.43637 2.3846256 215.53208 2.3498487 214.62425 z M 162.03933 217.57239 C 160.96362 231.96323 156.0784 245.2912 148.39158 256.55554 A 79.99469 79.99469 0 0 0 162.03933 217.57239 z M 2.5146965 217.59254 A 79.99469 79.99469 0 0 0 16.159342 256.55399 C 8.4770268 245.29522 3.5933343 231.97504 2.5146965 217.59254 z M 148.33577 256.63615 C 147.79888 257.42085 147.24843 258.19526 146.68471 258.95953 A 79.99469 79.99469 0 0 0 148.33577 256.63615 z M 16.218253 256.63925 A 79.99469 79.99469 0 0 0 17.868798 258.96108 C 17.305349 258.19725 16.75487 257.42351 16.218253 256.63925 z M 146.65629 258.99828 C 146.09095 259.76378 145.51218 260.519 144.92047 261.26326 A 79.99469 79.99469 0 0 0 146.65629 258.99828 z M 17.89722 258.99983 A 79.99469 79.99469 0 0 0 19.631481 261.26326 C 19.040241 260.51956 18.46216 259.76472 17.89722 258.99983 z M 19.880045 261.57125 A 79.99469 79.99469 0 0 0 21.628259 263.675 C 21.033891 262.98392 20.451163 262.28243 19.880045 261.57125 z M 144.67191 261.57125 C 144.10077 262.28243 143.51805 262.98392 142.9237 263.675 A 79.99469 79.99469 0 0 0 144.67191 261.57125 z M 21.636527 263.6843 A 79.99469 79.99469 0 0 0 23.456571 265.7281 C 22.838252 265.05743 22.231633 264.37602 21.636527 263.6843 z M 142.91543 263.6843 C 142.32033 264.37602 141.71373 265.05743 141.09538 265.7281 A 79.99469 79.99469 0 0 0 142.91543 263.6843 z M 23.849828 266.1503 A 79.99469 79.99469 0 0 0 25.721032 268.08507 A 79.99469 79.99469 0 0 0 27.655798 269.95627 C 27.000386 269.34332 26.355427 268.71947 25.721032 268.08507 C 25.086637 267.45066 24.462804 266.80569 23.849828 266.1503 z M 140.70213 266.1503 C 140.08982 266.80495 139.46671 267.44928 138.83299 268.083 C 138.19927 268.71672 137.55494 269.33983 136.90029 269.95214 A 79.99469 79.99469 0 0 0 138.83299 268.083 A 79.99469 79.99469 0 0 0 140.70213 266.1503 z M 28.071793 270.34333 A 79.99469 79.99469 0 0 0 30.085623 272.13753 C 29.404309 271.55058 28.732732 270.95275 28.071793 270.34333 z M 136.4781 270.34539 C 135.80742 270.96374 135.12601 271.57034 134.43429 272.16544 A 79.99469 79.99469 0 0 0 136.4781 270.34539 z M 134.42499 272.17371 C 133.73391 272.76806 133.03242 273.35078 132.32124 273.92192 A 79.99469 79.99469 0 0 0 134.42499 272.17371 z M 30.163138 272.20419 A 79.99469 79.99469 0 0 0 32.233813 273.92502 C 31.533788 273.36288 30.843629 272.78893 30.163138 272.20419 z M 32.537153 274.16945 A 79.99469 79.99469 0 0 0 34.806266 275.90836 C 34.039324 275.34197 33.282831 274.76233 32.537153 274.16945 z M 132.01325 274.17048 C 131.2635 274.76656 130.50304 275.34939 129.73174 275.9187 A 79.99469 79.99469 0 0 0 132.01325 274.17048 z M 129.73019 275.91973 C 128.95937 276.48866 128.17777 277.04415 127.38614 277.58578 A 79.99469 79.99469 0 0 0 129.73019 275.91973 z M 34.845023 275.9373 A 79.99469 79.99469 0 0 0 37.173563 277.59146 C 36.387188 277.05356 35.610825 276.50214 34.845023 275.9373 z M 37.240742 277.63797 A 79.99469 79.99469 0 0 0 76.220792 291.2883 C 61.830737 290.21126 48.503862 285.32546 37.240742 277.63797 z M 127.30553 277.64159 C 116.04374 285.32666 102.71931 290.21111 88.332197 291.2883 A 79.99469 79.99469 0 0 0 127.30553 277.64159 z M 76.443517 291.30277 A 79.99469 79.99469 0 0 0 79.190636 291.45367 C 78.27103 291.41849 77.355059 291.36847 76.443517 291.30277 z M 88.105855 291.30277 C 87.195493 291.36836 86.280866 291.41849 85.362353 291.45367 A 79.99469 79.99469 0 0 0 88.105855 291.30277 z M 79.333263 291.45883 A 79.99469 79.99469 0 0 0 82.06643 291.51309 C 81.151455 291.51075 80.24063 291.49194 79.333263 291.45883 z M 85.217659 291.45883 C 84.310685 291.49195 83.399991 291.51074 82.485526 291.51309 A 79.99469 79.99469 0 0 0 85.217659 291.45883 z " /></g></svg>
