<?xml version="1.0" encoding="UTF-8" standalone="no"?>
<!-- Created with Inkscape (http://www.inkscape.org/) -->

<svg
   width="170mm"
   height="171.16788mm"
   viewBox="0 0 170 171.16788"
   version="1.1"
   id="svg156"
   xml:space="preserve"
   inkscape:version="1.2.1 (9c6d41e410, 2022-07-14)"
   sodipodi:docname="add-btn_v2.svg"
   xmlns:inkscape="http://www.inkscape.org/namespaces/inkscape"
   xmlns:sodipodi="http://sodipodi.sourceforge.net/DTD/sodipodi-0.dtd"
   xmlns="http://www.w3.org/2000/svg"
   xmlns:svg="http://www.w3.org/2000/svg"><sodipodi:namedview
     id="namedview158"
     pagecolor="#ffffff"
     bordercolor="#000000"
     borderopacity="0.25"
     inkscape:showpageshadow="2"
     inkscape:pageopacity="0.0"
     inkscape:pagecheckerboard="0"
     inkscape:deskcolor="#d1d1d1"
     inkscape:document-units="mm"
     showgrid="true"
     inkscape:zoom="1.0885159"
     inkscape:cx="344.50576"
     inkscape:cy="486.44214"
     inkscape:window-width="1800"
     inkscape:window-height="1051"
     inkscape:window-x="111"
     inkscape:window-y="-9"
     inkscape:window-maximized="1"
     inkscape:current-layer="layer2"><inkscape:grid
       type="xygrid"
       id="grid3241"
       originx="4.4231897"
       originy="0.00050099116" /></sodipodi:namedview><defs
     id="defs153" /><g
     inkscape:groupmode="layer"
     id="layer2"
     inkscape:label="Layer 2"><circle
       style="fill:#000000;fill-opacity:0.34523809;stroke:#ffffff;stroke-width:0.703853;stroke-opacity:1;paint-order:stroke markers fill"
       id="path5232"
       cx="82.852753"
       cy="217.69331"
       r="84.648071"
       transform="translate(2.1472451,-131.52544)" /></g><g
     inkscape:label="Layer 1"
     inkscape:groupmode="layer"
     id="layer1"
     transform="translate(2.1472451,-131.52544)"
     style="display:inline"><path
       id="path305"
       style="color:#000000;display:inline;fill:#005aa1;fill-opacity:1;-inkscape-stroke:none;paint-order:stroke markers fill"
       d="m 82.275203,131.52544 c -44.182583,0 -79.9997684,35.8172 -79.9997684,79.99977 0,21.01553 8.1077324,40.13504 21.3604534,54.41115 1.356957,1.46174 2.767445,2.87225 4.229199,4.2292 a 79.99469,79.99469 0 0 0 0.001,10e-4 c 14.275929,13.25184 33.394346,21.35891 54.409082,21.35891 21.008431,0 40.122141,-8.10225 54.396681,-21.34702 a 79.99469,79.99469 0 0 0 0.0289,-0.0269 c 1.45159,-1.34819 2.85259,-2.7492 4.20078,-4.20078 a 79.99469,79.99469 0 0 0 0.0269,-0.0289 c 13.24477,-14.27455 21.34702,-33.38826 21.34702,-54.39668 0,-20.97976 -8.0801,-40.0695 -21.29276,-54.33777 -0.45888,-0.49554 -0.92411,-0.98486 -1.39526,-1.46864 a 79.99469,79.99469 0 0 0 -0.0517,-0.0532 c -0.20878,-0.21398 -0.42297,-0.42248 -0.63407,-0.63407 -0.0435,-0.0436 -0.0871,-0.0872 -0.13074,-0.13074 -0.2121,-0.21162 -0.42112,-0.42633 -0.63562,-0.63562 a 79.99469,79.99469 0 0 0 -0.0506,-0.0496 C 123.67117,140.17712 103.98478,131.52544 82.275203,131.52544 Z m -0.248047,0.015 a 79.99469,79.99469 0 0 0 -2.699577,0.0543 c 0.896264,-0.0327 1.79589,-0.0515 2.699577,-0.0543 z m -2.850472,0.0594 a 79.99469,79.99469 0 0 0 -2.713013,0.14883 c 0.900268,-0.0647 1.804874,-0.11406 2.713013,-0.14883 z m -2.966227,0.16485 a 79.99469,79.99469 0 0 0 -38.968164,13.64826 c 11.260098,-7.68473 24.582723,-12.56978 38.968164,-13.64826 z m 14.381034,0.20102 c 14.084159,1.45484 27.083769,6.56326 38.034889,14.36243 A 79.99469,79.99469 0 0 0 90.591491,131.96573 Z m -53.420512,13.49685 a 79.99469,79.99469 0 0 0 -2.32699,1.65364 c 0.765456,-0.56454 1.541,-1.11598 2.32699,-1.65364 z m -2.365747,1.68206 a 79.99469,79.99469 0 0 0 -2.268079,1.73788 c 0.745257,-0.59252 1.501561,-1.17184 2.268079,-1.73788 z m -2.571419,1.98231 a 79.99469,79.99469 0 0 0 -2.070675,1.72083 c 0.680491,-0.58475 1.37065,-1.15871 2.070675,-1.72083 z m -2.14819,1.78749 a 79.99469,79.99469 0 0 0 -2.01383,1.79421 c 0.660939,-0.60941 1.332516,-1.20724 2.01383,-1.79421 z m 40.189795,0.61082 24.000086,5.1e-4 v 47.99966 h 47.996036 0.004 v 24.00008 H 94.275504 v 48.00017 H 70.275418 V 223.52551 H 22.275247 v -24.00008 h 48.000171 v -47.99397 z m -42.61962,1.57044 a 79.99469,79.99469 0 0 0 -1.875855,1.81333 c 0.615583,-0.61428 1.240526,-1.21918 1.875855,-1.81333 z m -1.996778,1.93425 a 79.99469,79.99469 0 0 0 -1.813326,1.87586 c 0.594146,-0.63533 1.19905,-1.26027 1.813326,-1.87586 z m -2.200382,2.29185 a 79.99469,79.99469 0 0 0 -1.79834,2.01848 c 0.588267,-0.68284 1.187539,-1.35603 1.79834,-2.01848 z m -1.857251,2.08721 a 79.99469,79.99469 0 0 0 -1.72806,2.07895 c 0.564422,-0.703 1.140806,-1.39573 1.72806,-2.07895 z m -1.965255,2.3735 a 79.99469,79.99469 0 0 0 -1.739945,2.27015 c 0.566711,-0.7674 1.146729,-1.52413 1.739945,-2.27015 z m 126.687358,1.81798 c 8.71813,11.63195 14.33698,25.71845 15.64401,41.03522 a 79.99469,79.99469 0 0 0 -15.64401,-41.03522 z m -128.455725,0.49092 a 79.99469,79.99469 0 0 0 -1.655197,2.32958 c 0.53814,-0.78668 1.090098,-1.5634 1.655197,-2.32958 z m -1.704806,2.40089 A 79.99469,79.99469 0 0 0 2.5146965,205.46047 C 3.5931902,191.07502 8.4782292,177.7524 16.162959,166.4923 Z m -13.6642822,39.2214 a 79.99469,79.99469 0 0 0 -0.1488281,2.71301 c 0.034771,-0.90814 0.084177,-1.81274 0.1488281,-2.71301 z m -0.1539957,2.86391 a 79.99469,79.99469 0 0 0 -0.05426,2.69957 c 0.00275,-0.90368 0.021614,-1.80331 0.05426,-2.69957 z m 159.9184089,3.15794 c -0.002,0.91753 -0.0211,1.83143 -0.0543,2.74144 a 79.99469,79.99469 0 0 0 0.0543,-2.74144 z m -159.9726692,0.0393 a 79.99469,79.99469 0 0 0 0.05426,2.69854 c -0.032652,-0.89596 -0.051494,-1.79529 -0.05426,-2.69854 z m 159.9137492,2.8422 c -0.0352,0.92276 -0.0858,1.8414 -0.15192,2.75591 a 79.99469,79.99469 0 0 0 0.15192,-2.75591 z m -159.8543213,0.007 a 79.99469,79.99469 0 0 0 0.1488281,2.71198 c -0.064609,-0.89986 -0.1140512,-1.80415 -0.1488281,-2.71198 z m 159.6894813,2.94814 c -1.07571,14.39084 -5.96093,27.71881 -13.64775,38.98315 a 79.99469,79.99469 0 0 0 13.64775,-38.98315 z M 2.5146965,217.59254 A 79.99469,79.99469 0 0 0 16.159342,256.55399 C 8.4770268,245.29522 3.5933343,231.97504 2.5146965,217.59254 Z M 148.33577,256.63615 c -0.53689,0.7847 -1.08734,1.55911 -1.65106,2.32338 a 79.99469,79.99469 0 0 0 1.65106,-2.32338 z m -132.117517,0.003 a 79.99469,79.99469 0 0 0 1.650545,2.32183 c -0.563449,-0.76383 -1.113928,-1.53757 -1.650545,-2.32183 z m 130.438037,2.35903 c -0.56534,0.7655 -1.14411,1.52072 -1.73582,2.26498 a 79.99469,79.99469 0 0 0 1.73582,-2.26498 z m -128.75907,0.002 a 79.99469,79.99469 0 0 0 1.734261,2.26343 c -0.59124,-0.7437 -1.169321,-1.49854 -1.734261,-2.26343 z m 1.982825,2.57142 a 79.99469,79.99469 0 0 0 1.748214,2.10375 c -0.594368,-0.69108 -1.177096,-1.39257 -1.748214,-2.10375 z m 124.791865,0 c -0.57114,0.71118 -1.15386,1.41267 -1.74821,2.10375 a 79.99469,79.99469 0 0 0 1.74821,-2.10375 z m -123.035383,2.1127 a 79.99469,79.99469 0 0 0 1.820044,2.0438 c -0.618319,-0.67067 -1.224938,-1.35208 -1.820044,-2.0438 z m 121.278903,0 c -0.5951,0.69172 -1.2017,1.37313 -1.82005,2.0438 a 79.99469,79.99469 0 0 0 1.82005,-2.0438 z m -119.065602,2.466 a 79.99469,79.99469 0 0 0 1.871204,1.93477 79.99469,79.99469 0 0 0 1.934766,1.8712 c -0.655412,-0.61295 -1.300371,-1.2368 -1.934766,-1.8712 -0.634395,-0.63441 -1.258228,-1.27938 -1.871204,-1.93477 z m 116.852302,0 c -0.61231,0.65465 -1.23542,1.29898 -1.86914,1.9327 -0.63372,0.63372 -1.27805,1.25683 -1.9327,1.86914 a 79.99469,79.99469 0 0 0 1.9327,-1.86914 79.99469,79.99469 0 0 0 1.86914,-1.9327 z m -112.630337,4.19303 a 79.99469,79.99469 0 0 0 2.01383,1.7942 c -0.681314,-0.58695 -1.352891,-1.18478 -2.01383,-1.7942 z m 108.406307,0.002 c -0.67068,0.61835 -1.35209,1.22495 -2.04381,1.82005 a 79.99469,79.99469 0 0 0 2.04381,-1.82005 z m -2.05311,1.82832 c -0.69108,0.59435 -1.39257,1.17707 -2.10375,1.74821 a 79.99469,79.99469 0 0 0 2.10375,-1.74821 z m -104.261852,0.0305 a 79.99469,79.99469 0 0 0 2.070675,1.72083 c -0.700025,-0.56214 -1.390184,-1.13609 -2.070675,-1.72083 z m 2.374015,1.96526 a 79.99469,79.99469 0 0 0 2.269113,1.73891 c -0.766942,-0.56639 -1.523435,-1.14603 -2.269113,-1.73891 z m 99.476097,10e-4 c -0.74975,0.59608 -1.51021,1.17891 -2.28151,1.74822 a 79.99469,79.99469 0 0 0 2.28151,-1.74822 z m -2.28306,1.74925 c -0.77082,0.56893 -1.55242,1.12442 -2.34405,1.66605 a 79.99469,79.99469 0 0 0 2.34405,-1.66605 z m -94.885167,0.0176 a 79.99469,79.99469 0 0 0 2.32854,1.65416 c -0.786375,-0.5379 -1.562738,-1.08932 -2.32854,-1.65416 z m 2.395719,1.70067 a 79.99469,79.99469 0 0 0 38.98005,13.65033 c -14.390055,-1.07704 -27.71693,-5.96284 -38.98005,-13.65033 z m 90.064788,0.004 c -11.26179,7.68507 -24.58622,12.56952 -38.973333,13.64671 a 79.99469,79.99469 0 0 0 38.973333,-13.64671 z m -50.862013,13.66118 a 79.99469,79.99469 0 0 0 2.747119,0.1509 c -0.919606,-0.0352 -1.835577,-0.0852 -2.747119,-0.1509 z m 11.662338,0 c -0.910362,0.0656 -1.824989,0.11572 -2.743502,0.1509 a 79.99469,79.99469 0 0 0 2.743502,-0.1509 z m -8.772592,0.15606 a 79.99469,79.99469 0 0 0 2.733167,0.0543 c -0.914975,-0.002 -1.8258,-0.0211 -2.733167,-0.0543 z m 5.884396,0 c -0.906974,0.0331 -1.817668,0.0519 -2.732133,0.0543 a 79.99469,79.99469 0 0 0 2.732133,-0.0543 z" /><path
       style="fill:#ffffff;fill-opacity:1;stroke:#ffffff;stroke-width:2.0211;stroke-opacity:1;paint-order:stroke markers fill"
       d="M 257.23097,438.21133 V 347.72115 H 166.74079 76.250609 v -45.01542 -45.01542 h 90.490181 90.49018 V 166.74079 75.791268 h 45.01542 45.01542 v 90.949522 90.94952 h 90.49018 90.49018 v 45.01542 45.01542 h -90.49018 -90.49018 v 90.49018 90.49018 h -45.01542 -45.01542 z"
       id="path2015"
       transform="matrix(0.26458333,0,0,0.26458333,2.2759514,131.52596)" /><path
       style="fill:#ffffff;fill-opacity:1;stroke:#ffffff;stroke-width:2.0211;stroke-opacity:1;paint-order:stroke markers fill"
       d="M 256.31229,439.13001 V 348.63983 H 165.82211 75.331927 v -45.9341 -45.9341 h 90.490183 90.49018 V 165.82211 74.872586 h 45.9341 45.9341 v 90.949524 90.94952 h 90.49018 90.49018 v 45.9341 45.9341 h -90.49018 -90.49018 v 90.49018 90.49018 h -45.9341 -45.9341 z"
       id="path2932"
       transform="matrix(0.26458333,0,0,0.26458333,2.2759514,131.52596)" /><path
       style="fill:#ffffff;fill-opacity:1;stroke:#ffffff;stroke-width:2.0211;stroke-opacity:1;paint-order:stroke markers fill"
       d="M 255.39361,440.04869 V 349.55851 H 164.90342 74.413245 v -46.85278 -46.85278 h 90.490175 90.49019 V 164.90342 73.953904 h 46.85278 46.85278 v 90.949516 90.94953 h 90.49018 90.49018 v 46.85278 46.85278 h -90.49018 -90.49018 v 90.49018 90.49018 h -46.85278 -46.85278 z"
       id="path2934"
       transform="matrix(0.26458333,0,0,0.26458333,2.2759514,131.52596)" /></g></svg>
