<?xml version="1.0" encoding="UTF-8" standalone="no"?>
<!-- Generator: Adobe Illustrator 19.0.0, SVG Export Plug-In . SVG Version: 6.00 Build 0)  -->

<svg
   version="1.1"
   id="Capa_1"
   x="0px"
   y="0px"
   viewBox="0 0 490.4 436.00001"
   xml:space="preserve"
   sodipodi:docname="like_empty.svg"
   width="490.39999"
   height="436"
   inkscape:version="1.2.1 (9c6d41e410, 2022-07-14)"
   xmlns:inkscape="http://www.inkscape.org/namespaces/inkscape"
   xmlns:sodipodi="http://sodipodi.sourceforge.net/DTD/sodipodi-0.dtd"
   xmlns="http://www.w3.org/2000/svg"
   xmlns:svg="http://www.w3.org/2000/svg"><defs
   id="defs41" /><sodipodi:namedview
   id="namedview39"
   pagecolor="#ffffff"
   bordercolor="#000000"
   borderopacity="0.25"
   inkscape:showpageshadow="2"
   inkscape:pageopacity="0.0"
   inkscape:pagecheckerboard="0"
   inkscape:deskcolor="#d1d1d1"
   showgrid="false"
   inkscape:zoom="1.7618271"
   inkscape:cx="215.96898"
   inkscape:cy="218.23935"
   inkscape:window-width="1800"
   inkscape:window-height="1051"
   inkscape:window-x="111"
   inkscape:window-y="-9"
   inkscape:window-maximized="1"
   inkscape:current-layer="g6" />
<g
   id="g6"
   transform="translate(0,-27.2)">
	<g
   id="g4"
   style="fill:#ff0000;fill-opacity:1">
		<path
   d="m 222.5,453.7 c 6.1,6.1 14.3,9.5 22.9,9.5 8.5,0 16.9,-3.5 22.9,-9.5 L 448,274 c 27.3,-27.3 42.3,-63.6 42.4,-102.1 0,-38.6 -15,-74.9 -42.3,-102.2 C 420.8,42.4 384.6,27.4 346,27.4 c -37.9,0 -73.6,14.5 -100.7,40.9 -27.2,-26.5 -63,-41.1 -101,-41.1 -38.5,0 -74.7,15 -102,42.2 C 15,96.7 0,133 0,171.6 0,210.1 15.1,246.4 42.4,273.7 Z M 59.7,86.8 c 22.6,-22.6 52.7,-35.1 84.7,-35.1 32,0 62.2,12.5 84.9,35.2 l 7.4,7.4 c 2.3,2.3 5.4,3.6 8.7,3.6 v 0 c 3.2,0 6.4,-1.3 8.7,-3.6 l 7.2,-7.2 c 22.7,-22.7 52.8,-35.2 84.9,-35.2 32,0 62.1,12.5 84.7,35.1 22.7,22.7 35.1,52.8 35.1,84.8 0,32 -12.5,62.1 -35.2,84.8 L 251,436.4 c -2.9,2.9 -8.2,2.9 -11.2,0 l -180,-180 C 37.1,233.7 24.6,203.6 24.6,171.6 c 0,-32 12.5,-62.1 35.1,-84.8 z"
   id="path2"
   style="fill:#ff0000;fill-opacity:1" />
	</g>
</g>
<g
   id="g8"
   transform="translate(0,-27.2)">
</g>
<g
   id="g10"
   transform="translate(0,-27.2)">
</g>
<g
   id="g12"
   transform="translate(0,-27.2)">
</g>
<g
   id="g14"
   transform="translate(0,-27.2)">
</g>
<g
   id="g16"
   transform="translate(0,-27.2)">
</g>
<g
   id="g18"
   transform="translate(0,-27.2)">
</g>
<g
   id="g20"
   transform="translate(0,-27.2)">
</g>
<g
   id="g22"
   transform="translate(0,-27.2)">
</g>
<g
   id="g24"
   transform="translate(0,-27.2)">
</g>
<g
   id="g26"
   transform="translate(0,-27.2)">
</g>
<g
   id="g28"
   transform="translate(0,-27.2)">
</g>
<g
   id="g30"
   transform="translate(0,-27.2)">
</g>
<g
   id="g32"
   transform="translate(0,-27.2)">
</g>
<g
   id="g34"
   transform="translate(0,-27.2)">
</g>
<g
   id="g36"
   transform="translate(0,-27.2)">
</g>
</svg>
