<?xml version="1.0" encoding="UTF-8" standalone="no"?>
<!-- Generator: Adobe Illustrator 19.0.0, SVG Export Plug-In . SVG Version: 6.00 Build 0)  -->

<svg
   version="1.1"
   id="Capa_1"
   x="0px"
   y="0px"
   viewBox="0 0 490.4 436.00001"
   xml:space="preserve"
   sodipodi:docname="like_full.svg"
   width="490.39999"
   height="436"
   inkscape:version="1.2.1 (9c6d41e410, 2022-07-14)"
   xmlns:inkscape="http://www.inkscape.org/namespaces/inkscape"
   xmlns:sodipodi="http://sodipodi.sourceforge.net/DTD/sodipodi-0.dtd"
   xmlns="http://www.w3.org/2000/svg"
   xmlns:svg="http://www.w3.org/2000/svg"><defs
   id="defs41" /><sodipodi:namedview
   id="namedview39"
   pagecolor="#ffffff"
   bordercolor="#000000"
   borderopacity="0.25"
   inkscape:showpageshadow="2"
   inkscape:pageopacity="0.0"
   inkscape:pagecheckerboard="0"
   inkscape:deskcolor="#d1d1d1"
   showgrid="false"
   inkscape:zoom="1.7618271"
   inkscape:cx="215.96898"
   inkscape:cy="218.23935"
   inkscape:window-width="1800"
   inkscape:window-height="1051"
   inkscape:window-x="111"
   inkscape:window-y="-9"
   inkscape:window-maximized="1"
   inkscape:current-layer="g6" />
<g
   id="g6"
   transform="translate(0,-27.2)">
	<g
   id="g4"
   style="fill:#ff0000;fill-opacity:1">
		<path
   d="m 222.5,453.7 c 6.1,6.1 14.3,9.5 22.9,9.5 8.5,0 16.9,-3.5 22.9,-9.5 L 448,274 c 27.3,-27.3 42.3,-63.6 42.4,-102.1 0,-38.6 -15,-74.9 -42.3,-102.2 C 420.8,42.4 384.6,27.4 346,27.4 c -37.9,0 -73.6,14.5 -100.7,40.9 -27.2,-26.5 -63,-41.1 -101,-41.1 -38.5,0 -74.7,15 -102,42.2 C 15,96.7 0,133 0,171.6 0,210.1 15.1,246.4 42.4,273.7 Z M 59.7,86.8 c 22.6,-22.6 52.7,-35.1 84.7,-35.1 32,0 62.2,12.5 84.9,35.2 l 7.4,7.4 c 2.3,2.3 5.4,3.6 8.7,3.6 v 0 c 3.2,0 6.4,-1.3 8.7,-3.6 l 7.2,-7.2 c 22.7,-22.7 52.8,-35.2 84.9,-35.2 32,0 62.1,12.5 84.7,35.1 22.7,22.7 35.1,52.8 35.1,84.8 0,32 -12.5,62.1 -35.2,84.8 L 251,436.4 c -2.9,2.9 -8.2,2.9 -11.2,0 l -180,-180 C 37.1,233.7 24.6,203.6 24.6,171.6 c 0,-32 12.5,-62.1 35.1,-84.8 z"
   id="path2"
   style="fill:#ff0000;fill-opacity:1" />
	</g>
<path
   style="fill:#ff0000;fill-opacity:1;stroke:#ff0000;stroke-width:0;paint-order:stroke markers fill;stroke-opacity:1;stroke-dasharray:none"
   d="M 242.07521,410.09459 C 239.28526,408.71355 57.049054,226.4627 51.654245,219.65833 34.835287,198.44489 26.117727,175.10175 25.148028,148.68225 23.714154,109.61623 41.350925,72.481831 72.480994,49.022225 111.6838,19.479009 164.62123,16.758568 206.31691,42.144434 c 8.17019,4.974308 15.32092,10.653912 23.8402,18.93552 4.37139,4.249438 8.81479,8.170084 9.87423,8.712546 2.43038,1.244426 7.61311,1.289583 10.48096,0.09132 1.25728,-0.525326 5.50994,-4.171871 10.29631,-8.828824 15.19025,-14.77953 28.78395,-23.401697 46.54278,-29.521015 13.04904,-4.496426 24.07408,-6.276112 38.88009,-6.276112 11.54359,0 18.7638,0.84534 29.02456,3.39819 21.02508,5.230979 39.51756,15.768963 55.28235,31.502767 18.66818,18.631497 30.19361,41.678774 34.03188,68.053164 1.19242,8.19365 1.19016,24.31259 -0.005,32.48065 -3.07656,21.03385 -10.69568,39.39978 -23.40236,56.41152 -4.18635,5.6047 -190.47879,192.24249 -192.96526,193.32299 -2.43187,1.05676 -3.42519,1.00281 -6.12289,-0.33256 z"
   id="path2499"
   transform="translate(0,27.2)" /><path
   style="fill:#ff0000;fill-opacity:1;stroke:#ff0000;stroke-width:2.2;stroke-dasharray:none;stroke-opacity:1;paint-order:stroke markers fill"
   d="m 237.82129,434.729 c -4.98084,-1.31407 -9.6849,-3.90078 -14.2255,-7.82242 C 215.53534,419.94489 36.648259,240.25457 32.243464,234.69505 14.703683,212.55716 4.1673215,187.26324 1.1541686,160.06111 0.23627886,151.77459 0.37692444,134.59006 1.4282486,126.57315 5.5837409,94.885259 18.694184,67.414169 40.473718,44.758843 67.001688,17.164142 101.2387,1.8652603 139.62778,0.45164443 176.64169,-0.91133341 212.37459,12.171398 241.00722,37.569263 c 2.22052,1.969659 4.19894,3.581199 4.39649,3.581199 0.19754,0 2.1928,-1.682724 4.43391,-3.739386 13.43433,-12.328678 30.83045,-22.630649 48.82584,-28.9146322 24.73054,-8.63589233 53.45277,-10.2666929 79.05047,-4.4883536 62.48264,14.1046208 109.1062,69.2206338 112.01949,132.4237598 0.93227,20.22533 -1.47078,37.38701 -7.83883,55.98204 -4.94073,14.4272 -15.27019,32.51655 -25.44255,44.55601 -2.50575,2.96568 -46.91202,47.68457 -98.68059,99.37532 -87.64392,87.51216 -94.38079,94.10565 -97.84407,95.76174 -7.09779,3.39406 -15.43263,4.38267 -22.10609,2.62204 z m 10.21667,-23.50064 c 2.89075,-0.80576 188.07963,-186.20282 193.90622,-194.1242 12.68792,-17.24952 19.93493,-34.54858 22.94565,-54.77268 1.40771,-9.45605 1.49677,-25.43544 0.1924,-34.51991 C 461.32019,101.61023 449.64097,78.200267 431.06224,59.621548 413.59,42.149303 392.33629,31.008036 367.5162,26.310493 c -8.77874,-1.661497 -27.44268,-2.08344 -36.89352,-0.834067 -13.76778,1.820058 -26.10993,5.593299 -38.3125,11.712887 -12.26104,6.148915 -20.89753,12.466987 -32.63657,23.875459 -4.05829,3.944008 -8.01124,7.502104 -8.78433,7.906888 -2.46883,1.292635 -5.26925,1.649986 -8.12714,1.037083 -2.46026,-0.527635 -3.60611,-1.39827 -10.52013,-7.993333 C 218.52674,48.932844 209.8965,42.670051 196.79138,36.289599 144.42703,10.795119 80.961202,26.877063 46.907967,74.269354 24.705365,105.16897 18.479383,145.02256 30.180328,181.34583 c 2.439787,7.57384 7.805385,19.31553 11.80146,25.82546 6.830571,11.12757 7.900309,12.24332 104.402112,108.89281 51.69536,51.77446 94.75781,94.4829 95.69434,94.90764 2.05413,0.9316 3.33959,0.98695 5.95972,0.25662 z"
   id="path3509"
   transform="translate(0,27.2)" /></g>
<g
   id="g8"
   transform="translate(0,-27.2)">
</g>
<g
   id="g10"
   transform="translate(0,-27.2)">
</g>
<g
   id="g12"
   transform="translate(0,-27.2)">
</g>
<g
   id="g14"
   transform="translate(0,-27.2)">
</g>
<g
   id="g16"
   transform="translate(0,-27.2)">
</g>
<g
   id="g18"
   transform="translate(0,-27.2)">
</g>
<g
   id="g20"
   transform="translate(0,-27.2)">
</g>
<g
   id="g22"
   transform="translate(0,-27.2)">
</g>
<g
   id="g24"
   transform="translate(0,-27.2)">
</g>
<g
   id="g26"
   transform="translate(0,-27.2)">
</g>
<g
   id="g28"
   transform="translate(0,-27.2)">
</g>
<g
   id="g30"
   transform="translate(0,-27.2)">
</g>
<g
   id="g32"
   transform="translate(0,-27.2)">
</g>
<g
   id="g34"
   transform="translate(0,-27.2)">
</g>
<g
   id="g36"
   transform="translate(0,-27.2)">
</g>
</svg>
