<?xml version="1.0" encoding="UTF-8" standalone="no"?>
<!-- Created with Inkscape (http://www.inkscape.org/) -->

<svg
   width="102.92208mm"
   height="34.472816mm"
   viewBox="0 0 102.92208 34.472816"
   version="1.1"
   id="svg3192"
   sodipodi:docname="title.svg"
   inkscape:export-filename="title.svg"
   inkscape:export-xdpi="96"
   inkscape:export-ydpi="96"
   inkscape:version="1.2.1 (9c6d41e410, 2022-07-14)"
   xmlns:inkscape="http://www.inkscape.org/namespaces/inkscape"
   xmlns:sodipodi="http://sodipodi.sourceforge.net/DTD/sodipodi-0.dtd"
   xmlns="http://www.w3.org/2000/svg"
   xmlns:svg="http://www.w3.org/2000/svg">
  <sodipodi:namedview
     id="namedview445"
     pagecolor="#ffffff"
     bordercolor="#000000"
     borderopacity="0.25"
     inkscape:showpageshadow="2"
     inkscape:pageopacity="0.0"
     inkscape:pagecheckerboard="0"
     inkscape:deskcolor="#d1d1d1"
     inkscape:document-units="mm"
     showgrid="false"
     inkscape:zoom="1.1906393"
     inkscape:cx="-39.054649"
     inkscape:cy="165.03739"
     inkscape:window-width="1800"
     inkscape:window-height="1051"
     inkscape:window-x="111"
     inkscape:window-y="-9"
     inkscape:window-maximized="1"
     inkscape:current-layer="svg3192" />
  <defs
     id="defs3189" />
  <g
     aria-label="CleanMe!"
     id="cleanme"
     style="font-size:3.175px;fill:#005aa1;stroke:#005aa1;stroke-width:1.11125;paint-order:stroke markers fill;image-rendering:optimizeQuality;fill-opacity:1;stroke-opacity:1">
    <path
       d="m 13.131601,6.5955664 q -0.79375,0 -1.190625,-0.9301758 -0.347265,-0.79375 -0.644921,-0.9673828 -0.26045,-0.1364258 -1.289844,-0.1364258 -1.79834,0 -3.9935548,2.7533203 -2.9765625,3.6958987 -2.9765625,7.0073237 0,1.599903 1.0293945,2.753321 1.0541992,1.190625 2.5424805,1.190625 1.2774414,0 2.5672851,-0.657325 0.7193359,-0.37207 2.2076172,-1.463476 0.706934,-0.520898 1.066601,-0.520898 0.533301,0 0.892969,0.409277 0.359668,0.396875 0.359668,0.892969 0,0.558105 -0.471289,0.979785 -3.2742186,2.902148 -6.6228513,2.902148 -2.5672852,0 -4.3408203,-1.971973 -1.7115234,-1.90996 -1.7115234,-4.514453 0,-4.204394 3.5222656,-8.6196284 2.9393554,-3.683496 5.9283204,-3.683496 0.607715,0 1.091406,0.062012 0.483691,0.049609 0.855762,0.1736328 0.434082,-0.6325195 1.128613,-0.6325195 0.855762,0 1.079004,1.1286133 0.198437,1.0045898 0.198437,2.4680664 0,0.508496 -0.272851,0.8929687 -0.334863,0.4836914 -0.954981,0.4836914 z"
       style="font-size:25.4px;font-family:'Comic Sans MS';-inkscape-font-specification:'Comic Sans MS';fill:#005aa1;fill-opacity:1;stroke:#005aa1;stroke-opacity:1"
       id="path655" />
    <path
       d="m 19.618027,10.762754 -0.186035,6.163965 q 0,0.979785 -0.09922,2.877343 -0.124023,1.240235 -1.215429,1.240235 -1.21543,0 -1.21543,-1.265039 0,-1.500684 0.136426,-4.502051 0.136425,-3.01377 0.136425,-4.514453 0,-1.9595705 0.06201,-4.4772462 0.06201,-2.5300781 0.06201,-4.4896484 0,-1.24023433 1.21543,-1.24023433 1.227832,0 1.227832,1.24023433 0,1.9595703 -0.06201,4.4896484 -0.06201,2.5176757 -0.06201,4.4772462 z"
       style="font-size:25.4px;font-family:'Comic Sans MS';-inkscape-font-specification:'Comic Sans MS';fill:#005aa1;fill-opacity:1;stroke:#005aa1;stroke-opacity:1"
       id="path657" />
    <path
       d="m 29.217441,21.081504 q -2.802929,0 -4.539257,-1.401465 -1.897559,-1.550293 -1.897559,-4.34082 0,-3.22461 1.562695,-5.4074222 1.699121,-2.38125 4.539258,-2.38125 2.058789,0 3.361035,0.6945313 1.599902,0.8557617 1.599902,2.6292969 0,1.240234 -1.401464,2.257226 -0.620118,0.446485 -2.629297,1.389063 l -4.737695,2.244824 q 0.694531,1.029395 1.723925,1.550293 1.041797,0.520898 2.418457,0.520898 0.855762,0 2.00918,-0.32246 1.463477,-0.409278 1.885156,-1.066602 0.42168,-0.669727 0.905371,-0.669727 0.434082,0 0.768946,0.334864 0.347265,0.322461 0.347265,0.756543 0,1.37666 -2.220019,2.368847 -1.897559,0.84336 -3.695899,0.84336 z M 28.882578,9.7829687 q -1.513086,0 -2.517676,1.1782223 -1.00459,1.165821 -1.500683,3.522266 l 3.807519,-1.810742 q 2.244824,-1.091407 3.199805,-1.897559 -1.066602,-0.9921873 -2.988965,-0.9921873 z"
       style="font-size:25.4px;font-family:'Comic Sans MS';-inkscape-font-specification:'Comic Sans MS';fill:#005aa1;fill-opacity:1;stroke:#005aa1;stroke-opacity:1"
       id="path659" />
    <path
       d="m 47.027205,21.329551 q -0.235644,0 -0.855761,-0.545704 -0.558106,-0.508496 -0.830957,-0.905371 -1.190625,0.644922 -2.095996,0.967383 -0.905372,0.334863 -1.513086,0.334863 -2.902149,0 -4.2292,-1.637109 -1.252636,-1.537891 -1.252636,-4.71289 0,-3.001368 2.058789,-5.1345707 2.071191,-2.1332031 4.936133,-2.1332031 1.079003,0 2.418457,0.5581054 1.686718,0.6945313 1.686718,1.6743164 0,0.334863 -0.248047,0.595313 -0.124023,0.471289 -0.198437,1.550292 -0.06201,1.079004 -0.07441,2.765723 -0.0124,1.537891 0.21084,2.430859 0.124023,0.545704 0.781347,2.182813 0.08682,0.223242 0.285254,0.657324 l 0.07441,0.21084 q 0,0.496094 -0.347265,0.818555 -0.347266,0.322461 -0.806153,0.322461 z m -2.579687,-8.619629 q 0,-0.533301 0.06201,-1.153418 0.07441,-0.63252 0.210839,-1.339453 -0.458886,-0.2356448 -0.79375,-0.3472659 -0.32246,-0.1116211 -0.520898,-0.1116211 -1.922363,0 -3.323828,1.575098 -1.389063,1.562695 -1.389063,3.609082 0,2.033984 0.719336,3.050976 0.719336,1.016992 2.158008,1.016992 1.190625,0 2.021582,-0.434082 0.446485,-0.235644 1.252637,-0.942578 -0.396875,-3.286621 -0.396875,-4.92373 z"
       style="font-size:25.4px;font-family:'Comic Sans MS';-inkscape-font-specification:'Comic Sans MS';fill:#005aa1;fill-opacity:1;stroke:#005aa1;stroke-opacity:1"
       id="path661" />
    <path
       d="m 59.85123,21.391562 q -1.066601,0 -1.203027,-1.16582 l -0.347266,-2.716113 q -0.173632,-1.451074 -0.173632,-2.716114 0,-0.347265 0.03721,-1.178222 0.04961,-0.830957 0.04961,-1.178223 0,-2.678906 -0.992188,-2.678906 -1.389062,0 -2.654101,1.649512 -1.141016,1.500683 -1.785938,3.795117 -0.0248,0.483691 -0.111621,1.215429 -0.07441,0.620118 -0.07441,1.203028 0,0.37207 0.07441,1.116211 0.07441,0.74414 0.07441,1.116211 0,0.558105 -0.347265,0.905371 -0.334863,0.347265 -0.868164,0.347265 -0.545703,0 -0.880567,-0.347265 -0.334863,-0.347266 -0.334863,-0.905371 0,-0.372071 -0.08682,-1.116211 -0.07441,-0.744141 -0.07441,-1.116211 0,-1.277442 0.173632,-3.534668 0.186036,-2.269629 0.186036,-3.54707 0,-0.396875 -0.04961,-1.178223 -0.03721,-0.7813476 -0.03721,-1.1782226 0,-0.5333008 0.347266,-0.8681641 0.359668,-0.3472656 0.880566,-0.3472656 1.141016,0 1.252637,1.6123047 l 0.03721,1.4510746 q 2.083594,-2.7781254 4.278808,-2.7781254 1.984375,0 2.765723,1.7487304 0.533301,1.16582 0.58291,3.447852 v 1.252636 l -0.0124,1.153418 q 0,1.029395 0.260449,2.666504 0.272852,1.624707 0.272852,2.641699 0,0.545703 -0.359668,0.880567 -0.347266,0.347265 -0.880567,0.347265 z"
       style="font-size:25.4px;font-family:'Comic Sans MS';-inkscape-font-specification:'Comic Sans MS';fill:#005aa1;fill-opacity:1;stroke:#005aa1;stroke-opacity:1"
       id="path663" />
    <path
       d="m 82.063826,21.54039 q -0.669726,0 -1.103808,-0.694531 -0.372071,-0.595312 -0.669727,-1.984375 L 79.843807,16.728281 Q 79.335311,14.743906 78.231502,7.9722265 l -2.480469,7.4786135 -0.731738,2.356445 q -0.446484,1.401465 -0.930176,2.294434 -0.520898,0.942578 -1.401464,0.942578 -0.731739,0 -1.153418,-0.79375 -0.272852,-0.520899 -0.496094,-1.327051 l -0.359668,-1.37666 Q 69.425838,13.168808 68.470858,8.170664 l -0.446485,2.22002 -1.599902,6.548437 q -0.09922,1.153418 -0.620117,3.410644 -0.37207,0.967383 -1.227832,0.967383 -0.607715,0 -0.967383,-0.434082 -0.310058,-0.37207 -0.310058,-0.917773 0,-2.071192 0.855761,-5.084961 L 65.5191,9.8821874 66.238436,5.9754492 q 0.545703,-2.7409179 1.153418,-3.5842773 0.496094,-0.7193359 1.227832,-0.7193359 0.806152,0 1.203027,0.9177734 0.483692,1.1038086 1.041797,4.5020507 0.657324,4.0803709 2.046387,8.8304689 1.835547,-4.774903 3.175,-9.9466798 l 0.37207,-1.8107422 q 0.223242,-1.0914062 0.58291,-1.7611327 0.483692,-0.9177735 1.327051,-0.9177735 1.066601,0 1.624707,2.0587891 0.198437,0.7069336 0.483691,2.9269531 0.731739,5.605859 1.823145,9.574609 l 0.607715,2.133203 q 0.471289,1.711524 0.471289,2.108399 0,0.5333 -0.409278,0.892968 -0.396875,0.359668 -0.905371,0.359668 z"
       style="font-size:25.4px;font-family:'Comic Sans MS';-inkscape-font-specification:'Comic Sans MS';fill:#005aa1;fill-opacity:1;stroke:#005aa1;stroke-opacity:1"
       id="path665" />
    <path
       d="m 91.849277,21.081504 q -2.802929,0 -4.539257,-1.401465 -1.897559,-1.550293 -1.897559,-4.34082 0,-3.22461 1.562695,-5.4074222 1.699121,-2.38125 4.539258,-2.38125 2.058789,0 3.361035,0.6945313 1.599902,0.8557617 1.599902,2.6292969 0,1.240234 -1.401464,2.257226 -0.620118,0.446485 -2.629297,1.389063 l -4.737695,2.244824 q 0.694531,1.029395 1.723925,1.550293 1.041797,0.520898 2.418457,0.520898 0.855762,0 2.00918,-0.32246 1.463476,-0.409278 1.885156,-1.066602 0.42168,-0.669727 0.905371,-0.669727 0.434082,0 0.768946,0.334864 0.347265,0.322461 0.347265,0.756543 0,1.37666 -2.220019,2.368847 -1.897559,0.84336 -3.695899,0.84336 z M 91.514414,9.7829687 q -1.513086,0 -2.517676,1.1782223 -1.00459,1.165821 -1.500683,3.522266 l 3.807519,-1.810742 q 2.244824,-1.091407 3.199805,-1.897559 -1.066602,-0.9921873 -2.988965,-0.9921873 z"
       style="font-size:25.4px;font-family:'Comic Sans MS';-inkscape-font-specification:'Comic Sans MS';fill:#005aa1;fill-opacity:1;stroke:#005aa1;stroke-opacity:1"
       id="path667" />
    <path
       d="m 102.35406,1.709043 v 13.803808 q 0,1.103809 -1.10381,1.103809 -1.10381,0 -1.10381,-1.103809 0,-0.508496 -0.0372,-1.513086 -0.0248,-1.016992 -0.0248,-1.513085 0,-1.79834 0.0248,-5.3826175 0.0372,-3.5966797 0.0372,-5.3950195 0,-1.10380855 1.10381,-1.10380855 1.10381,0 1.10381,1.10380855 z m 0.0124,18.516699 q 0,0.446484 -0.35966,0.768945 -0.34727,0.334864 -0.79375,0.334864 -0.4961,0 -0.99219,-0.644922 -0.483694,-0.607715 -0.483694,-1.116211 0,-0.446485 0.347264,-0.768946 0.35967,-0.32246 0.81856,-0.32246 0.48369,0 0.99218,0.644921 0.47129,0.607715 0.47129,1.103809 z"
       style="font-size:25.4px;font-family:'Comic Sans MS';-inkscape-font-specification:'Comic Sans MS';fill:#005aa1;fill-opacity:1;stroke:#005aa1;stroke-opacity:1"
       id="path669" />
  </g>
  <g
     aria-label="find your service"
     transform="scale(1.1262415,0.88790904)"
     id="text3447"
     style="font-size:8.10119px;font-family:'Comic Sans MS';-inkscape-font-specification:'Comic Sans MS';fill:#005aa1;stroke:#005aa1;stroke-width:0.531642;paint-order:stroke markers fill;fill-opacity:1;stroke-opacity:1">
    <path
       d="m 16.881684,30.673356 q -0.95727,0 -1.071984,1.329101 l -0.01187,0.245251 q 0.672462,-0.04747 0.870245,-0.04747 0.62895,0 0.62895,0.395566 0,0.288763 -0.308542,0.344142 -0.134492,0.02373 -0.316452,0.01978 -0.178005,-0.0079 -0.909802,0.05142 l -0.03164,0.90189 q 0,0.245251 0.01582,0.735753 0.01582,0.490502 0.01582,0.731797 0,0.751575 -0.08702,1.170875 -0.06725,0.316452 -0.367877,0.316452 -0.162182,0 -0.276896,-0.106802 -0.114714,-0.102847 -0.114714,-0.261074 0,-0.03165 0.0079,-0.07911 0.08307,-0.514236 0.08307,-1.119451 l -0.01187,-1.079895 v -1.147141 q -0.494457,0.03956 -0.624994,0.03956 -0.399522,0 -0.399522,-0.383699 0,-0.39161 0.692241,-0.411388 l 0.379743,-0.01187 q 0.01187,-0.221517 0.05934,-0.60126 0.102847,-0.878157 0.443034,-1.293501 0.411388,-0.502369 1.285589,-0.502369 0.565659,0 0.565659,0.383699 0,0.379744 -0.514235,0.379744 z"
       id="path743"
       style="fill:#005aa1;fill-opacity:1;stroke:#005aa1;stroke-opacity:1" />
    <path
       d="m 19.096853,31.227148 q -0.189872,0 -0.32832,-0.134493 -0.138448,-0.134492 -0.138448,-0.324364 0,-0.189871 0.138448,-0.324364 0.138448,-0.134492 0.32832,-0.134492 0.189871,0 0.324364,0.134492 0.138448,0.134493 0.138448,0.324364 0,0.189872 -0.138448,0.324364 -0.134493,0.134493 -0.324364,0.134493 z m 0.178004,3.211995 q 0,0.237339 0.01187,0.712018 0.01582,0.470724 0.01582,0.708063 0,0.174049 -0.106803,0.284808 -0.106803,0.110758 -0.280852,0.110758 -0.170093,0 -0.280851,-0.110758 -0.106803,-0.110759 -0.106803,-0.284808 0,-0.237339 -0.01582,-0.708063 -0.01187,-0.474679 -0.01187,-0.712018 0,-0.371832 0.03956,-0.925624 0.03956,-0.557748 0.03956,-0.92958 0,-0.178005 0.106803,-0.288763 0.110759,-0.110759 0.280852,-0.110759 0.170093,0 0.276896,0.110759 0.110759,0.110758 0.110759,0.288763 0,0.371832 -0.03956,0.92958 -0.03956,0.553792 -0.03956,0.925624 z"
       id="path745"
       style="fill:#005aa1;fill-opacity:1;stroke:#005aa1;stroke-opacity:1" />
    <path
       d="m 23.645861,36.515864 q -0.340187,0 -0.383699,-0.371832 l -0.110759,-0.866289 q -0.05538,-0.462813 -0.05538,-0.86629 0,-0.110758 0.01187,-0.375787 0.01582,-0.265029 0.01582,-0.375788 0,-0.854422 -0.316453,-0.854422 -0.443034,0 -0.846511,0.526102 -0.363921,0.478635 -0.569615,1.210432 -0.0079,0.154271 -0.0356,0.387655 -0.02373,0.197783 -0.02373,0.383699 0,0.118669 0.02373,0.356009 0.02373,0.237339 0.02373,0.356009 0,0.178005 -0.110758,0.288763 -0.106803,0.110759 -0.276896,0.110759 -0.174049,0 -0.280852,-0.110759 -0.106803,-0.110758 -0.106803,-0.288763 0,-0.11867 -0.02769,-0.356009 -0.02373,-0.23734 -0.02373,-0.356009 0,-0.407433 0.05538,-1.127363 0.05933,-0.723886 0.05933,-1.131319 0,-0.126581 -0.01582,-0.375787 -0.01187,-0.249207 -0.01187,-0.375788 0,-0.170093 0.110758,-0.276896 0.114714,-0.110759 0.280852,-0.110759 0.363921,0 0.399522,0.514236 l 0.01187,0.462812 q 0.66455,-0.886067 1.364702,-0.886067 0.632905,0 0.882112,0.557748 0.170093,0.371831 0.185916,1.099673 v 0.399521 l -0.004,0.367877 q 0,0.328319 0.08307,0.850466 0.08702,0.518192 0.08702,0.842556 0,0.174049 -0.114715,0.280851 -0.110758,0.110759 -0.280851,0.110759 z"
       id="path747"
       style="fill:#005aa1;fill-opacity:1;stroke:#005aa1;stroke-opacity:1" />
    <path
       d="m 28.495499,32.742165 q -0.04747,0.581482 -0.04747,1.162964 0,1.317234 0.122626,1.989696 0.0079,0.05538 0.0079,0.09098 0,0.158226 -0.110758,0.261073 -0.110759,0.102847 -0.257118,0.102847 -0.245251,0 -0.359965,-0.356009 -0.284808,0.20965 -0.593349,0.316453 -0.304586,0.106802 -0.636861,0.106802 -0.818822,0 -1.356791,-0.545881 -0.553792,-0.557747 -0.553792,-1.431948 0,-1.056161 0.557748,-1.693022 0.561703,-0.636861 1.455682,-0.636861 0.458856,0 0.708063,0.142403 l 0.371832,0.272941 q 0.05538,-1.665333 0.130537,-2.242859 0.05142,-0.352053 0.359965,-0.352053 0.359965,0 0.359965,0.383699 0,0.549836 -0.158227,2.428774 z m -1.756312,0.102847 q -0.664551,0 -0.996826,0.395566 -0.332276,0.39161 -0.332276,1.182742 0,0.51028 0.359965,0.878157 0.363921,0.367876 0.850467,0.367876 0.332275,0 0.561703,-0.122626 0.134493,-0.0712 0.439079,-0.328319 0.05934,-0.05142 0.114714,-0.122626 l -0.01187,-0.684329 0.004,-0.458856 0.0079,-0.466768 q -0.150315,-0.320408 -0.399522,-0.478635 -0.249206,-0.162182 -0.597304,-0.162182 z"
       id="path749"
       style="fill:#005aa1;fill-opacity:1;stroke:#005aa1;stroke-opacity:1" />
    <path
       d="m 35.481194,32.706564 -1.368658,2.958833 q -0.506325,1.079895 -0.77531,1.807736 l -0.261073,0.767398 q -0.102847,0.284808 -0.356009,0.284808 -0.166138,0 -0.288764,-0.110759 -0.118669,-0.106803 -0.118669,-0.268985 0,-0.395566 0.854422,-2.290326 L 31.751007,33.12982 31.573002,32.841057 Q 31.4662,32.659096 31.4662,32.536471 q 0,-0.162182 0.122625,-0.284808 0.126581,-0.122625 0.280852,-0.122625 0.18196,0 0.280852,0.138448 0.672462,0.933536 1.443815,2.658203 l 0.585438,-1.364702 q 0.316452,-0.708063 0.609171,-1.218343 0.126581,-0.221517 0.332276,-0.221517 0.162182,0 0.284807,0.114714 0.126581,0.114714 0.126581,0.27294 0,0.08703 -0.05142,0.197783 z"
       id="path751"
       style="fill:#005aa1;fill-opacity:1;stroke:#005aa1;stroke-opacity:1" />
    <path
       d="m 37.731963,36.468396 q -0.664551,0 -1.143185,-0.490502 -0.534014,-0.545881 -0.561704,-1.467549 -0.02373,-0.893979 0.450945,-1.574353 0.553792,-0.802998 1.542707,-0.802998 0.791132,0 1.198565,0.723885 0.324364,0.585438 0.312497,1.408215 -0.01187,0.878156 -0.458857,1.499195 -0.506324,0.704107 -1.340968,0.704107 z m 0.23734,-3.532404 q -0.581482,-0.004 -0.905846,0.553793 -0.257118,0.446989 -0.257118,1.02056 0,0.57357 0.312497,0.893979 0.261073,0.265029 0.613127,0.265029 0.411389,0 0.708063,-0.30063 0.336231,-0.332276 0.356009,-0.897935 0.05538,-1.53084 -0.826732,-1.534796 z"
       id="path753"
       style="fill:#005aa1;fill-opacity:1;stroke:#005aa1;stroke-opacity:1" />
    <path
       d="m 43.736653,33.924907 q 0,0.284808 0.004,0.854423 0.004,0.569614 0.004,0.854422 0,0.08702 0.01187,0.265029 0.01582,0.178005 0.01582,0.265029 0,0.170094 -0.114714,0.276896 -0.114714,0.110759 -0.280852,0.110759 -0.304586,0 -0.387655,-0.375788 -0.494457,0.257118 -1.139229,0.257118 -0.518192,0 -0.858378,-0.229428 -0.375788,-0.253162 -0.44699,-0.739708 -0.15427,-1.04825 -0.15427,-1.867071 0,-0.541926 0.118669,-1.234166 0.05538,-0.344142 0.375788,-0.344142 0.170093,0 0.284807,0.110758 0.114714,0.106803 0.114714,0.276896 0,0.18196 -0.05933,0.581482 -0.05538,0.399522 -0.05538,0.609172 0,0.660595 0.04351,1.131318 0.04351,0.470723 0.130536,0.755531 0.130537,0.0712 0.257118,0.110758 0.126581,0.0356 0.249207,0.0356 0.530058,0 1.119451,-0.170093 l -0.004,-0.802999 -0.0079,-0.767398 q 0,-0.854422 0.07516,-1.483372 0.04351,-0.36392 0.383699,-0.36392 0.170093,0 0.284807,0.110758 0.114714,0.110758 0.106803,0.276896 z"
       id="path755"
       style="fill:#005aa1;fill-opacity:1;stroke:#005aa1;stroke-opacity:1" />
    <path
       d="m 47.799114,33.31178 q -0.02769,0.494457 -0.395566,0.494457 -0.340186,0 -0.340186,-0.39161 0,-0.07516 -0.01187,-0.276896 l -0.01187,-0.332275 q -0.624994,0.07516 -1.000782,0.352053 -0.352054,0.257118 -0.585438,0.77531 l 0.0079,2.167701 q 0,0.399521 -0.391611,0.399521 -0.348098,0 -0.348098,-0.399521 v -2.776873 q 0,-0.130537 0.0079,-0.39161 0.01187,-0.261074 0.01187,-0.39161 0,-0.399522 0.348098,-0.399522 0.387654,0 0.39161,0.656639 0.759487,-0.731797 1.685111,-0.731797 0.320408,0 0.478634,0.241296 0.158227,0.241295 0.158227,0.727841 0,0.205694 -0.004,0.276896 z"
       id="path757"
       style="fill:#005aa1;fill-opacity:1;stroke:#005aa1;stroke-opacity:1" />
    <path
       d="m 53.704914,33.189155 q -0.217562,0 -0.304586,-0.14636 -0.05934,-0.102847 -0.102847,-0.427211 -0.296675,0.07516 -0.913757,0.276896 -0.636861,0.253162 -0.640817,0.624994 0.11867,0.04351 0.233384,0.06329 0.909801,0.162182 1.352835,0.446989 0.644773,0.415345 0.644773,1.202521 0,0.644772 -0.557748,0.973092 -0.462813,0.268985 -1.170875,0.268985 -0.518192,0 -0.988915,-0.174049 -0.609172,-0.221517 -0.609172,-0.617083 0,-0.158227 0.122626,-0.276896 0.126581,-0.11867 0.284807,-0.11867 0.122626,0 0.316453,0.189872 0.09494,0.09098 0.427211,0.150315 0.265029,0.04747 0.44699,0.04747 0.332275,0 0.585437,-0.07911 0.367876,-0.114714 0.367876,-0.36392 0,-0.53797 -0.751575,-0.727842 l -0.411388,-0.09098 q -0.526103,-0.114714 -0.74762,-0.268985 -0.320408,-0.221516 -0.320408,-0.668506 0,-0.826733 0.779265,-1.178786 0.237339,-0.106803 0.759486,-0.253162 0.522147,-0.150316 0.74762,-0.253163 0.162182,-0.0712 0.352053,-0.0712 0.170094,0 0.276896,0.110759 0.110759,0.110758 0.110759,0.288763 0,0.114714 0.04747,0.336231 0.05142,0.221517 0.05142,0.336231 0,0.178005 -0.110758,0.288763 -0.106803,0.110759 -0.276896,0.110759 z"
       id="path759"
       style="fill:#005aa1;fill-opacity:1;stroke:#005aa1;stroke-opacity:1" />
    <path
       d="m 56.825931,36.416972 q -0.893979,0 -1.447771,-0.446989 -0.605216,-0.494457 -0.605216,-1.384481 0,-1.028471 0.498413,-1.724667 0.541925,-0.759487 1.447771,-0.759487 0.656639,0 1.071984,0.221517 0.51028,0.272941 0.51028,0.8386 0,0.395566 -0.44699,0.71993 -0.197783,0.142404 -0.838599,0.443034 l -1.511062,0.715974 q 0.221517,0.32832 0.549836,0.494457 0.332276,0.166138 0.771354,0.166138 0.27294,0 0.640817,-0.102847 0.466767,-0.130537 0.60126,-0.340187 0.134492,-0.213605 0.288763,-0.213605 0.138448,0 0.245251,0.106802 0.110758,0.102848 0.110758,0.241296 0,0.439078 -0.708063,0.755531 -0.605216,0.268984 -1.178786,0.268984 z m -0.106803,-3.603605 q -0.48259,0 -0.802999,0.375788 -0.320408,0.371832 -0.478634,1.123407 l 1.214387,-0.577526 q 0.715974,-0.348098 1.02056,-0.605216 -0.340187,-0.316453 -0.953314,-0.316453 z"
       id="path761"
       style="fill:#005aa1;fill-opacity:1;stroke:#005aa1;stroke-opacity:1" />
    <path
       d="m 62.494389,33.31178 q -0.02769,0.494457 -0.395566,0.494457 -0.340187,0 -0.340187,-0.39161 0,-0.07516 -0.01187,-0.276896 l -0.01187,-0.332275 q -0.624994,0.07516 -1.000782,0.352053 -0.352053,0.257118 -0.585437,0.77531 l 0.0079,2.167701 q 0,0.399521 -0.39161,0.399521 -0.348098,0 -0.348098,-0.399521 v -2.776873 q 0,-0.130537 0.0079,-0.39161 0.01187,-0.261074 0.01187,-0.39161 0,-0.399522 0.348098,-0.399522 0.387655,0 0.39161,0.656639 0.759487,-0.731797 1.685111,-0.731797 0.320408,0 0.478635,0.241296 0.158226,0.241295 0.158226,0.727841 0,0.205694 -0.004,0.276896 z"
       id="path763"
       style="fill:#005aa1;fill-opacity:1;stroke:#005aa1;stroke-opacity:1" />
    <path
       d="m 65.132813,36.029318 q -0.01187,0.36392 -0.359965,0.36392 -0.288763,0 -0.4193,-0.340186 l -0.605216,-1.605998 -0.704107,-1.815647 q -0.03956,-0.102847 -0.03956,-0.181961 0,-0.162182 0.122626,-0.276896 0.122625,-0.114714 0.284807,-0.114714 0.23734,0 0.340187,0.241295 l 1.004737,2.765006 q 0.296675,-0.632905 0.74762,-1.835426 0.106803,-0.316452 0.336231,-0.893979 0.122625,-0.253162 0.348098,-0.253162 0.162182,0 0.284807,0.114714 0.122626,0.114714 0.122626,0.272941 0,0.150315 -0.652684,1.693022 z"
       id="path765"
       style="fill:#005aa1;fill-opacity:1;stroke:#005aa1;stroke-opacity:1" />
    <path
       d="m 68.004623,31.227148 q -0.189871,0 -0.328319,-0.134493 -0.138448,-0.134492 -0.138448,-0.324364 0,-0.189871 0.138448,-0.324364 0.138448,-0.134492 0.328319,-0.134492 0.189872,0 0.324364,0.134492 0.138449,0.134493 0.138449,0.324364 0,0.189872 -0.138449,0.324364 -0.134492,0.134493 -0.324364,0.134493 z m 0.178005,3.211995 q 0,0.237339 0.01187,0.712018 0.01582,0.470724 0.01582,0.708063 0,0.174049 -0.106803,0.284808 -0.106803,0.110758 -0.280852,0.110758 -0.170093,0 -0.280852,-0.110758 -0.106802,-0.110759 -0.106802,-0.284808 0,-0.237339 -0.01582,-0.708063 -0.01187,-0.474679 -0.01187,-0.712018 0,-0.371832 0.03956,-0.925624 0.03956,-0.557748 0.03956,-0.92958 0,-0.178005 0.106803,-0.288763 0.110758,-0.110759 0.280852,-0.110759 0.170093,0 0.276896,0.110759 0.110758,0.110758 0.110758,0.288763 0,0.371832 -0.03956,0.92958 -0.03956,0.553792 -0.03956,0.925624 z"
       id="path767"
       style="fill:#005aa1;fill-opacity:1;stroke:#005aa1;stroke-opacity:1" />
    <path
       d="m 71.307596,36.484219 q -0.81091,0 -1.352835,-0.490502 -0.569615,-0.514236 -0.569615,-1.356791 0,-0.802999 0.534014,-1.657421 0.593349,-0.949358 1.337013,-0.949358 0.387654,0 0.866289,0.18196 0.605216,0.233384 0.605216,0.569615 0,0.150315 -0.09889,0.268985 -0.09889,0.114714 -0.24525,0.114714 -0.114714,0 -0.201739,-0.06725 -0.08307,-0.0712 -0.162182,-0.138448 -0.233384,-0.185916 -0.763442,-0.185916 -0.403477,0 -0.799043,0.71993 -0.359965,0.660595 -0.359965,1.143186 0,0.522147 0.356009,0.822777 0.332275,0.280852 0.854422,0.280852 0.23734,0 0.506325,-0.126581 l 0.458856,-0.245251 q 0.11867,-0.06329 0.170093,-0.06329 0.14636,0 0.253163,0.11867 0.106802,0.114714 0.106802,0.265029 0,0.288763 -0.609171,0.557748 -0.534014,0.23734 -0.886068,0.23734 z"
       id="path769"
       style="fill:#005aa1;fill-opacity:1;stroke:#005aa1;stroke-opacity:1" />
    <path
       d="m 75.528285,36.416972 q -0.893979,0 -1.447771,-0.446989 -0.605216,-0.494457 -0.605216,-1.384481 0,-1.028471 0.498413,-1.724667 0.541926,-0.759487 1.447772,-0.759487 0.656639,0 1.071983,0.221517 0.51028,0.272941 0.51028,0.8386 0,0.395566 -0.446989,0.71993 -0.197783,0.142404 -0.8386,0.443034 l -1.511062,0.715974 q 0.221517,0.32832 0.549837,0.494457 0.332275,0.166138 0.771353,0.166138 0.272941,0 0.640817,-0.102847 0.466768,-0.130537 0.60126,-0.340187 0.134493,-0.213605 0.288763,-0.213605 0.138448,0 0.245251,0.106802 0.110759,0.102848 0.110759,0.241296 0,0.439078 -0.708063,0.755531 -0.605216,0.268984 -1.178787,0.268984 z m -0.106802,-3.603605 q -0.482591,0 -0.802999,0.375788 -0.320409,0.371832 -0.478635,1.123407 l 1.214387,-0.577526 q 0.715975,-0.348098 1.02056,-0.605216 -0.340186,-0.316453 -0.953313,-0.316453 z"
       id="path771"
       style="fill:#005aa1;fill-opacity:1;stroke:#005aa1;stroke-opacity:1" />
  </g>
</svg>
